<svg width="26" height="26" viewBox="0 0 26 26" fill="none" xmlns="http://www.w3.org/2000/svg">
<circle cx="13" cy="13" r="13" fill="#D8E5EE"/>
<mask id="mask0" mask-type="alpha" maskUnits="userSpaceOnUse" x="0" y="0" width="26" height="26">
<circle cx="13" cy="13" r="13" fill="#C4C4C4"/>
</mask>
<g mask="url(#mask0)">
<path d="M23.7731 25.4418L23.2338 23.2843C22.9779 22.2377 22.202 21.396 21.1797 21.0559L17.2244 19.738C16.2598 19.3362 15.8184 17.7828 15.7231 17.1931C16.4581 16.582 16.931 15.7124 17.0446 14.7633C17.0283 14.6012 17.0666 14.4383 17.1533 14.3003C17.2935 14.2652 17.4082 14.1649 17.4616 14.0306C17.7204 13.404 17.8829 12.7417 17.9435 12.0665C17.9436 12.0298 17.9391 11.9932 17.93 11.9577C17.8656 11.6953 17.7113 11.4638 17.494 11.3033V8.92019C17.494 7.472 17.0517 6.87782 16.5861 6.53351C16.4971 5.83597 15.7501 4.42554 12.9994 4.42554C10.5589 4.5238 8.60296 6.47975 8.50469 8.92023V11.3033C8.28734 11.4638 8.13308 11.6954 8.06869 11.9578C8.05959 11.9933 8.05508 12.0299 8.05521 12.0665C8.11572 12.7421 8.27816 13.4046 8.53705 14.0316C8.57599 14.1587 8.67809 14.2564 8.80673 14.2896C8.85709 14.3148 8.95148 14.4452 8.95148 14.7634C9.06571 15.7152 9.54136 16.5867 10.2801 17.1977C10.1857 17.7865 9.74703 19.339 8.80947 19.7309L4.81908 21.0559C3.79754 21.396 3.02221 22.2369 2.76592 23.2826L2.22656 25.44C2.16551 25.6806 2.31105 25.9252 2.55166 25.9863C2.5876 25.9954 2.62455 26 2.66163 26.0001H23.3372C23.5854 26 23.7866 25.7987 23.7865 25.5505C23.7865 25.5138 23.782 25.4773 23.7731 25.4418Z" fill="#49608D"/>
</g>
</svg>
