<svg width="50" height="50" viewBox="0 0 50 50" fill="none" xmlns="http://www.w3.org/2000/svg">
<mask id="mask0" mask-type="alpha" maskUnits="userSpaceOnUse" x="0" y="0" width="50" height="50">
<circle cx="25" cy="25" r="25" fill="#C4C4C4"/>
</mask>
<g mask="url(#mask0)">
<circle cx="25" cy="25" r="25" fill="#D8E5EE"/>
<path d="M44.9745 48.939L43.9495 44.839C43.4632 42.85 41.9887 41.2505 40.0458 40.6041L32.5289 38.0996C30.6958 37.336 29.8571 34.384 29.6759 33.2633C31.0727 32.1019 31.9714 30.4494 32.1872 28.6457C32.1564 28.3377 32.2291 28.0281 32.3939 27.7659C32.6603 27.6992 32.8783 27.5085 32.9799 27.2534C33.4717 26.0625 33.7804 24.804 33.8956 23.5207C33.8958 23.451 33.8873 23.3816 33.87 23.3141C33.7476 22.8154 33.4544 22.3754 33.0414 22.0704V17.5416C33.0414 14.7895 32.2009 13.6603 31.3159 13.006C31.1469 11.6804 29.7272 9 24.4996 9C19.8616 9.18674 16.1444 12.9038 15.9577 17.5417V22.0705C15.5446 22.3755 15.2515 22.8155 15.1291 23.3141C15.1118 23.3817 15.1032 23.4512 15.1035 23.5208C15.2185 24.8047 15.5272 26.0638 16.0192 27.2553C16.0932 27.4967 16.2872 27.6824 16.5317 27.7456C16.6274 27.7934 16.8068 28.0411 16.8068 28.6459C17.0239 30.4547 17.9278 32.1109 19.3318 33.2721C19.1524 34.391 18.3187 37.3413 16.5369 38.0861L8.95339 40.6042C7.012 41.2505 5.53852 42.8484 5.05148 44.8357L4.02645 48.9357C3.91041 49.3929 4.18701 49.8577 4.64427 49.9737C4.71258 49.9911 4.78281 49.9999 4.85328 50H44.146C44.6178 49.9998 45.0001 49.6173 45 49.1456C44.9999 49.0758 44.9914 49.0065 44.9745 48.939Z" fill="#49608D"/>
</g>
<circle cx="43" cy="42" r="5" fill="#00F836"/>
</svg>
