<svg width="16" height="16" viewBox="0 0 16 16" fill="none" xmlns="http://www.w3.org/2000/svg">
<path d="M15.4465 15.1823L14.1587 13.0358C13.564 12.045 13.2497 10.9102 13.2497 9.75526V7.875C13.2497 5.50125 11.6657 3.49351 9.49971 2.84625V1.50001C9.49971 0.67275 8.82696 0 7.9997 0C7.17244 0 6.49969 0.67275 6.49969 1.50001V2.84625C4.33371 3.49351 2.74971 5.50125 2.74971 7.875V9.75526C2.74971 10.9102 2.43545 12.0442 1.84145 13.035L0.553711 15.1815C0.483961 15.2978 0.482449 15.4418 0.549211 15.5595C0.615973 15.6773 0.739723 15.75 0.874723 15.75H15.1247C15.2597 15.75 15.3842 15.6773 15.451 15.5603C15.5177 15.4433 15.5155 15.2978 15.4465 15.1823Z" fill="#BFC3CC"/>
</svg>
