<svg width="18" height="12" viewBox="0 0 18 12" fill="none" xmlns="http://www.w3.org/2000/svg">
<path d="M17.8395 10.0238C17.7912 9.9428 17.4919 9.2925 16.0518 7.9559C14.5442 6.5563 14.7467 6.78357 16.5626 4.36351C17.6685 2.88965 18.1107 1.98959 17.9723 1.60481C17.8407 1.23803 17.0272 1.33479 17.0272 1.33479L14.3225 1.35054C14.3225 1.35054 14.1223 1.32354 13.9726 1.41242C13.8275 1.50017 13.7341 1.70269 13.7341 1.70269C13.7341 1.70269 13.3055 2.84352 12.7339 3.81335C11.529 5.85987 11.0463 5.96788 10.8494 5.84075C10.3915 5.54485 10.5063 4.65041 10.5063 4.01586C10.5063 2.03234 10.8067 1.2054 9.92009 0.991636C9.62532 0.920756 9.40931 0.873502 8.65663 0.865627C7.69131 0.855501 6.87337 0.869002 6.41096 1.09514C6.10269 1.2459 5.8653 1.58231 6.01044 1.60143C6.18932 1.62506 6.59435 1.71056 6.80924 2.00309C7.08714 2.37999 7.07701 3.2283 7.07701 3.2283C7.07701 3.2283 7.23677 5.56285 6.70461 5.85312C6.33896 6.05226 5.8383 5.64611 4.76384 3.78859C4.21368 2.8379 3.7974 1.78595 3.7974 1.78595C3.7974 1.78595 3.71752 1.59018 3.57463 1.48555C3.40137 1.35841 3.15835 1.31791 3.15835 1.31791L0.586419 1.33366C0.586419 1.33366 0.200516 1.34491 0.0587554 1.51255C-0.0672537 1.66219 0.0486297 1.97046 0.0486297 1.97046C0.0486297 1.97046 2.06253 6.68118 4.34194 9.05623C6.43347 11.2333 8.80739 11.0904 8.80739 11.0904H9.88297C9.88297 11.0904 10.2081 11.0544 10.3735 10.8755C10.5265 10.7112 10.5209 10.403 10.5209 10.403C10.5209 10.403 10.4995 8.95948 11.1701 8.74684C11.8305 8.53757 12.6788 10.1419 13.5777 10.7596C14.2573 11.2265 14.7737 11.1241 14.7737 11.1241L17.178 11.0904C17.178 11.0904 18.4358 11.0128 17.8395 10.0238Z" fill="white"/>
</svg>
